<svg aria-hidden="true" style="position: absolute; width: 0; height: 0; overflow: hidden;" version="1.1" xmlns="http://www.w3.org/2000/svg" xmlns:xlink="http://www.w3.org/1999/xlink">
<defs>
<symbol id="icon-location" viewBox="0 0 32 32">
<path d="M16 0c-5.523 0-10 4.477-10 10 0 10 10 22 10 22s10-12 10-22c0-5.523-4.477-10-10-10zM16 16c-3.314 0-6-2.686-6-6s2.686-6 6-6 6 2.686 6 6-2.686 6-6 6z"></path>
</symbol>
<symbol id="icon-search" viewBox="0 0 32 32">
<path d="M31.008 27.231l-7.58-6.447c-0.784-0.705-1.622-1.029-2.299-0.998 1.789-2.096 2.87-4.815 2.87-7.787 0-6.627-5.373-12-12-12s-12 5.373-12 12 5.373 12 12 12c2.972 0 5.691-1.081 7.787-2.87-0.031 0.677 0.293 1.515 0.998 2.299l6.447 7.58c1.104 1.226 2.907 1.33 4.007 0.23s0.997-2.903-0.23-4.007zM12 20c-4.418 0-8-3.582-8-8s3.582-8 8-8 8 3.582 8 8-3.582 8-8 8z"></path>
</symbol>
<symbol id="icon-zoom-in" viewBox="0 0 32 32">
<path d="M31.008 27.231l-7.58-6.447c-0.784-0.705-1.622-1.029-2.299-0.998 1.789-2.096 2.87-4.815 2.87-7.787 0-6.627-5.373-12-12-12s-12 5.373-12 12 5.373 12 12 12c2.972 0 5.691-1.081 7.787-2.87-0.031 0.677 0.293 1.515 0.998 2.299l6.447 7.58c1.104 1.226 2.907 1.33 4.007 0.23s0.997-2.903-0.23-4.007zM12 20c-4.418 0-8-3.582-8-8s3.582-8 8-8 8 3.582 8 8-3.582 8-8 8zM14 6h-4v4h-4v4h4v4h4v-4h4v-4h-4z"></path>
</symbol>
<symbol id="icon-phone" viewBox="0 0 32 32">
<path d="M24 0h-16c-1.658 0-3 1.343-3 3v26c0 1.658 1.343 3 3 3h16c1.656 0 3-1.344 3-3v-26c0-1.658-1.344-3-3-3zM25 29c0 0.551-0.449 1-1 1h-16c-0.552 0-1-0.447-1-1v-2.004h18v2.004zM25 25.996h-18v-19.996h18v19.996zM25 5h-18v-2c0-0.552 0.448-1 1-1h16c0.551 0 1 0.448 1 1v2zM18 3.5c0 0.276-0.225 0.5-0.5 0.5h-3c-0.277 0-0.5-0.224-0.5-0.5v0c0-0.277 0.223-0.5 0.5-0.5h3c0.275 0 0.5 0.223 0.5 0.5v0zM17 28.496c0 0.275-0.225 0.5-0.5 0.5h-1c-0.276 0-0.5-0.225-0.5-0.5v0c0-0.277 0.224-0.5 0.5-0.5h1c0.275 0 0.5 0.223 0.5 0.5v0z"></path>
</symbol>
</defs>
</svg>
